<svg preserveAspectRatio="none" overflow="visible" style="display: block;" width="24" height="24" viewBox="0 0 24 24" fill="none" xmlns="http://www.w3.org/2000/svg">
<g id="image 5 [Vectorized]">
<path id="Vector" d="M11.986 6.93768L13.661 6.94103C13.6618 7.05646 13.6495 7.26494 13.6877 7.36277L14.1739 7.35792C14.1685 7.84865 14.2086 8.0534 14.456 8.49222C14.5179 8.60191 14.5818 8.68682 14.5962 8.80807C14.7209 8.92572 14.8585 9.02896 15.0062 9.11585C15.2671 9.12208 15.6234 9.26088 15.9992 9.28064C15.992 9.40057 15.9817 9.54302 16.0037 9.66061C16.1422 9.68153 16.3457 9.67853 16.4909 9.68039C16.478 10.2273 16.5049 10.8167 16.4793 11.3494C16.2636 11.3395 15.926 11.3261 15.7257 11.2798C15.3351 11.1896 14.4223 10.9334 14.1752 10.6162C14.1668 11.3501 14.1647 12.0841 14.169 12.818C14.1703 14.1628 14.2643 15.2113 13.1698 16.2285C12.1026 17.2206 10.4839 17.3046 9.28724 16.4842C9.2563 16.4629 9.27149 16.3945 9.28035 16.3644C9.02083 16.2408 8.76946 16.0405 8.58348 15.8217C8.56958 15.8161 8.55777 15.811 8.54406 15.8046L8.52688 15.7964C8.4509 15.7611 8.38897 15.7002 8.33148 15.6376C7.0277 14.2168 7.35201 12.0283 8.95171 10.9839C9.55822 10.588 10.2794 10.492 10.9914 10.503L11.0054 10.9209C11.1678 10.9173 11.3303 10.9172 11.4927 10.9204C11.5041 11.486 11.5072 12.0518 11.502 12.6175C10.6522 12.4774 9.92059 12.8096 9.71366 13.703C9.60332 14.1795 9.81578 14.3621 9.83976 14.7364C9.9415 14.8242 9.96831 14.8406 10.0917 14.8939C10.6327 14.9814 11.1124 14.9931 11.553 14.5861C12.0837 14.0959 11.9908 13.5375 11.9883 12.8662L11.9862 11.6913C11.9838 10.1138 11.97 8.51357 11.986 6.93768Z" fill="#FEFEFE"/>
<path id="Vector_2" d="M15.9913 9.65314L16.0037 9.66059C16.1422 9.68152 16.3457 9.67852 16.4909 9.68037C16.478 10.2273 16.5049 10.8167 16.4793 11.3494C16.2636 11.3395 15.926 11.3261 15.7257 11.2798C15.3351 11.1895 14.4223 10.9334 14.1751 10.6161C14.1668 11.3501 14.1647 12.0841 14.169 12.818C14.1702 14.1628 14.2643 15.2112 13.1698 16.2285C12.1025 17.2205 10.4839 17.3046 9.28723 16.4842C9.25629 16.4629 9.27148 16.3944 9.28034 16.3643C9.8404 16.568 10.3131 16.6664 10.9168 16.6072C11.72 16.5229 12.4584 16.1281 12.9744 15.507C13.6348 14.6983 13.6578 14.0077 13.6588 13.0278L13.659 11.6866C13.6589 11.3114 13.6789 10.5459 13.6453 10.2164C13.8638 10.3209 14.0019 10.3918 14.2096 10.5175C14.8973 10.8562 15.2331 10.8735 15.9867 10.9239C15.9807 10.5003 15.9822 10.0767 15.9913 9.65314Z" fill="#E61B5B"/>
<path id="Vector_3" d="M11.986 6.93768L13.661 6.94103C13.6618 7.05646 13.6495 7.26494 13.6876 7.36277C13.2915 7.35754 12.8953 7.35724 12.4992 7.36186C12.5181 8.89071 12.5036 10.47 12.5013 12.003L12.501 13.2629C12.5011 13.5914 12.5148 13.9432 12.4592 14.2607C12.3458 14.9086 11.7111 15.3916 11.0579 15.3654C10.6785 15.3502 10.4685 15.3438 10.1959 15.0366C10.1421 14.9797 10.1258 14.9746 10.0917 14.8939C10.6327 14.9814 11.1124 14.9931 11.553 14.5861C12.0837 14.0959 11.9908 13.5375 11.9883 12.8662L11.9862 11.6913C11.9838 10.1138 11.97 8.51357 11.986 6.93768Z" fill="#13B8C0"/>
<path id="Vector_4" d="M8.58348 15.8217C8.56958 15.816 8.55777 15.8109 8.54406 15.8045L8.52688 15.7964C8.4509 15.7611 8.38897 15.7002 8.33148 15.6375C7.0277 14.2168 7.35201 12.0282 8.95171 10.9839C9.55822 10.5879 10.2794 10.492 10.9914 10.503L11.0054 10.9209C9.26345 10.9915 7.95484 12.4002 8.03514 14.1442C8.07032 14.9079 8.33514 15.1729 8.58348 15.8217Z" fill="#13B8C0"/>
<path id="Vector_5" d="M11.0055 10.9209C11.1679 10.9173 11.3303 10.9172 11.4928 10.9204C11.5041 11.486 11.5073 12.0517 11.5021 12.6174C10.6523 12.4773 9.92066 12.8096 9.71373 13.703C9.60339 14.1794 9.81585 14.3621 9.83983 14.7363C9.39869 14.5301 9.08526 13.802 9.20361 13.3329C9.43011 12.4353 10.138 12.0447 11.012 12.1894C10.987 11.8099 11.0027 11.3094 11.0055 10.9209Z" fill="#E61B5B"/>
<path id="Vector_6" d="M13.6877 7.36276L14.1739 7.35791C14.1685 7.84864 14.2086 8.05339 14.456 8.49221C14.5179 8.6019 14.5818 8.68682 14.5963 8.80806C14.2379 8.588 13.9282 8.10477 13.7644 7.72391C13.7259 7.63424 13.7257 7.47207 13.6877 7.36276Z" fill="#E61B5B"/>
<path id="Vector_7" d="M15.0062 9.11581C15.2671 9.12205 15.6234 9.26085 15.9992 9.2806C15.992 9.40053 15.9817 9.54299 16.0037 9.66057L15.9913 9.65312C15.9356 9.60826 15.7947 9.61117 15.6909 9.56757C15.4279 9.45723 15.2157 9.30702 15.0062 9.11581Z" fill="#13B8C0"/>
</g>
</svg>
